# xmcd CD database file
# Generated: Do Dez 18 17:26:11 2003 by KSCD
# 
# Track frame offsets:
#       150
#       10537
#       25875
#       43060
#       61317
#       74825
#       90210
#       106907
#       126317
#       146857
#       160532
#       176135
#       187025
#       200467
#       215135
#       226387
#
# Disc length: 3210 seconds
#
# Revision: 9
# Processed by: cddbd v1.4PL0 Copyright (c) Steve Scherf et al.
# Submitted via: Kscd 1.3.3
#
DISCID=e60c8810
DTITLE=Kris Kristofferson - Help Me Make It Through The Night
DYEAR=1900
DGENRE=Country
TTITLE0=Help Me Make It Through The Night
TTITLE1=For The Good Times
TTITLE2=Lovin' Her Was Easier
TTITLE3=He's My Body
TTITLE4=Kiss The World Goodbye
TTITLE5=If You Don't Know
TTITLE6=Magdalena
TTITLE7=Silver Tongued Devil And I
TTITLE8=Sunday Mornin' Comin' Down
TTITLE9=When I Loved Her
TTITLE10=Why Me
TTITLE11=The Bandit Of Beverly Hills
TTITLE12=Shake Hands With The Devil
TTITLE13=Shadows Of Your Mind
TTITLE14=Jesus Was A Capricorn
TTITLE15=Daddy's Song
EXTD=Lilo ID3G: 2
EXTT0=
EXTT1=
EXTT2=
EXTT3=
EXTT4=
EXTT5=
EXTT6=
EXTT7=
EXTT8=
EXTT9=
EXTT10=
EXTT11=
EXTT12=
EXTT13=
EXTT14=
EXTT15=
PLAYORDER=
